# xmcd
#
# Track frame offsets: 
#        150
#        14741
#        29334
#        41199
#        54393
#        66586
#        79997
#        93482
#        106295
#        119900
#        134257
#        146625
#        159272
#        173027
#        185126
#        198096
#        210208
#        222429
#        236274
#        248023
#        260972
#        271808
#        286103
#        297649
#        310325
#
# Disc length: 4305 seconds
#
# Revision: 1
# Processed by: cddbd v1.5.2PL0 Copyright (c) Steve Scherf et al.
# Submitted via: ExactAudioCopyFreeDBPlugin 1.0
#
DISCID=8510cf19
DTITLE=Priscilla Stewart - Complete Recorded Works (1924-1928)
DYEAR=1996
DGENRE=Blues
TTITLE0=You Ain't Foolin' Me
TTITLE1=True Blues
TTITLE2=Mecca Flat Blues
TTITLE3=Delta Bottom Blues
TTITLE4=Mr. Freddie Blues
TTITLE5=I Never Call My Man's Name
TTITLE6=Tall Brown Blues
TTITLE7=The Woman Ain't Born
TTITLE8=I Was Born a Brownskin and You Can't Make Me Blue
TTITLE9=Priscilla Blues
TTITLE10=Charleston Mad
TTITLE11=Charleston Mad
TTITLE12=Charleston, South Carolina
TTITLE13=Switch It Miss Mitchell
TTITLE14=Going to the Nation
TTITLE15=It Must Be Hard
TTITLE16=Somebody's Chewin' You Too
TTITLE17=Biscuit Roller
TTITLE18=Jefferson County
TTITLE19=Lonesome Hour Blues
TTITLE20=New Mr. Freddie Blues
TTITLE21=P. D. Q. Blues
TTITLE22=Someday, Sweetheart
TTITLE23=A Little Bit Closer
TTITLE24=I Want to See My Baby
EXTD=
EXTT0=
EXTT1=
EXTT2=
EXTT3=
EXTT4=
EXTT5=
EXTT6=
EXTT7=
EXTT8=
EXTT9=
EXTT10=
EXTT11=
EXTT12=
EXTT13=
EXTT14=
EXTT15=
EXTT16=
EXTT17=
EXTT18=
EXTT19=
EXTT20=
EXTT21=
EXTT22=
EXTT23=
EXTT24=
PLAYORDER=
